<svg version="1" xmlns="http://www.w3.org/2000/svg" width="682.667" height="682.667" viewBox="0 0 512.000000 512.000000"><path d="M133.7 51.6c-.1.1-1.8.5-3.7.8-13.8 2.1-27.3 12.1-34.2 25.1-6.2 11.8-5.8.1-5.7 179.9.1 90.3.5 165.2.9 166.6.8 2.4.8 2.3.9-.8.1-4.1.1-3.8 2.2-10 5.4-15.6 16.9-26.9 32.6-31.9l7.4-2.3H422V219.6c0-98.9-.4-160.4-1-162-.5-1.4-2.1-3.3-3.7-4.3-2.6-1.7-9.6-1.8-143.1-1.8-77.1 0-140.4 0-140.5.1zm78.4 79.4c10.7 3.6 18 10.2 22.7 20.3 3.1 6.6 3.8 13.5 3.6 32.7-.1 13.8-.5 17.4-2.2 22.4-3.7 10.1-11 18-20.9 22.3l-6.3 2.7v47.8c0 33.3-.3 48.5-1.1 50.2-1.4 3-6 5.1-9.4 4.2-2.5-.6-5.9-3.7-6.1-5.6-.1-.6-.2-22.5-.3-48.8l-.1-47.8-6.5-2.8c-11.5-5-20-15.8-22.2-28.1-1-5.7-.9-36.2.1-41.5 2.3-11.9 13.5-24.4 25.4-28.3 6.5-2.2 16.3-2 23.3.3zm70 7.3c3.5 2.7 3.8 5.2 3.9 33.5l.2 28.1 2.8 4.4c2.7 4.2 8.9 9.7 9.1 8 .1-.4.2-16 .3-34.6l.1-33.9 2.8-2.4c5.5-4.7 12.3-2.1 13.5 5.1.4 2.2.7 18.1.6 35.2 0 17.2.1 31.3.3 31.3 1.6 0 7.8-6.1 9.6-9.4 2.1-3.9 2.2-5.5 2.4-30.6.1-14.6.5-27.9.8-29.7 1.5-8.3 14-8.2 16.1.1.3 1.3.4 15.2.2 30.8l-.3 28.4-3.8 7.7c-4.9 10-13.1 17.1-23.3 20.1-2 .6-2 1-1.9 47.4 0 25.7-.3 48-.7 49.7-1.6 6.4-8.4 8.5-13.5 4.1l-2.8-2.4-.1-48.6c0-29.2-.4-48.9-1-49.4-.5-.5-2.9-1.6-5.4-2.5-5.7-2.1-14-9.3-17.5-15.2-5-8.6-5.4-11.6-5.4-42.4-.1-25.8.1-28.8 1.7-30.7 2.8-3.4 8.2-4.5 11.3-2.1z"/><path d="M193 147.3c-5.4 2.6-8.9 5.9-11.1 10.4-2.1 4.3-2.3 6.3-2.4 20.8-.1 8.8.2 17.8.7 20 2.2 9.7 11.2 16.6 21.1 16.1 6.1-.3 10.1-2.2 14.5-6.7 4.9-5 5.6-8.5 5.6-27.9 0-16.3-.2-17.9-2.3-22.3-3.3-6.9-9.5-10.8-17.5-11.3-3.5-.2-7.2.2-8.6.9zM143.5 396.1c-12 .6-16.2 1.9-22.7 7.1-11.9 9.4-15.5 26.6-8.4 40.2 2.1 4.1 6.8 9 11.6 12.1 8.1 5.1 2.1 4.9 142 5.1 123.3.1 130.8 0 136.5-1.7 6.8-2.1 13.3-7 17.1-13 2.4-3.8 2.4-4.2 2.4-27.1v-23.3H288.3c-73.6 0-138.7.3-144.8.6z"/></svg>