<?xml version="1.0" standalone="no"?>
<!DOCTYPE svg PUBLIC "-//W3C//DTD SVG 20010904//EN"
 "http://www.w3.org/TR/2001/REC-SVG-20010904/DTD/svg10.dtd">
<svg version="1.0" xmlns="http://www.w3.org/2000/svg"
 width="40px" height="40px" viewBox="0 0 900.000000 900.000000"
 preserveAspectRatio="xMidYMid meet">
<metadata>
Created by potrace 1.10, written by Peter Selinger 2001-2011
</metadata>
<g transform="translate(0.000000,900.000000) scale(0.100000,-0.100000)"
fill="#ffffff" stroke="none">
<path d="M2293 8059 c-40 -5 -86 -15 -102 -24 -17 -8 -38 -15 -48 -15 -27 0
-175 -82 -242 -134 -32 -25 -78 -69 -102 -98 -24 -29 -46 -55 -49 -58 -24 -21
-92 -155 -127 -250 l-27 -75 -6 -2875 c-3 -1581 -2 -2888 1 -2905 5 -29 6 -28
14 15 4 24 11 51 15 60 4 8 15 40 25 70 29 92 159 286 225 336 8 7 31 26 50
43 37 32 204 131 222 131 6 0 43 12 82 27 l71 28 2548 3 2547 2 -2 2813 -3
2814 -28 36 c-15 20 -38 42 -50 49 -18 10 -520 13 -2482 14 -1353 1 -2493 -2
-2532 -7z m1372 -1339 c141 -36 255 -104 350 -208 43 -48 95 -122 95 -136 0
-5 6 -17 14 -25 7 -9 26 -54 41 -101 27 -83 28 -93 32 -360 5 -265 -3 -396
-26 -489 -25 -97 -104 -232 -179 -303 -46 -46 -133 -108 -148 -108 -6 0 -17
-6 -23 -13 -6 -8 -37 -22 -68 -33 -32 -10 -61 -23 -65 -29 -4 -5 -8 -383 -8
-840 0 -794 -1 -832 -19 -872 -20 -43 -74 -86 -123 -98 -57 -14 -135 30 -168
96 -19 37 -20 62 -20 872 0 656 -3 837 -12 844 -7 5 -35 18 -63 28 -160 59
-297 186 -375 347 -62 128 -72 215 -67 588 4 289 4 297 31 375 15 44 38 98 51
120 14 22 29 49 34 61 5 11 45 56 89 100 169 169 409 240 627 184z m1294 -156
c70 -51 70 -47 73 -594 l3 -485 33 -60 c36 -63 113 -145 137 -145 12 0 15 88
17 583 l3 582 23 37 c65 104 209 104 274 0 l23 -37 3 -582 c2 -504 5 -583 17
-583 21 0 106 87 128 130 42 84 46 134 47 603 0 353 3 454 14 480 16 38 76 94
112 103 39 10 93 -3 130 -31 67 -51 65 -29 62 -615 -2 -407 -6 -532 -15 -542
-7 -6 -13 -20 -13 -31 0 -27 -37 -104 -87 -179 -49 -74 -142 -164 -200 -194
-21 -10 -45 -24 -53 -30 -8 -6 -37 -19 -65 -29 -27 -10 -56 -23 -62 -28 -10
-7 -13 -201 -15 -857 l-3 -848 -31 -39 c-18 -21 -51 -46 -77 -57 -41 -17 -51
-18 -89 -7 -53 16 -103 65 -117 116 -7 28 -11 294 -11 856 0 637 -3 819 -12
830 -7 9 -35 24 -63 34 -184 68 -341 233 -405 425 -31 94 -32 102 -31 612 0
528 0 527 47 570 63 56 135 60 203 12z"/>
<path d="M3409 6397 c-140 -53 -222 -151 -240 -288 -16 -115 -7 -602 12 -652
24 -65 89 -143 145 -175 58 -33 146 -62 190 -62 81 0 218 69 270 136 54 71 63
91 74 175 13 108 13 461 -1 569 -15 124 -67 203 -178 269 -48 29 -65 33 -145
37 -62 3 -102 0 -127 -9z"/>
<path d="M2330 1999 c-97 -28 -166 -67 -241 -137 -72 -68 -128 -151 -148 -222
-45 -159 -27 -327 48 -455 86 -144 240 -247 399 -265 117 -13 4499 -13 4602 0
118 16 191 53 285 145 119 117 114 94 115 555 l1 395 -2498 1 c-2410 2 -2500
1 -2563 -17z"/>
</g>
</svg>
